<svg xmlns="http://www.w3.org/2000/svg" width="512" height="512" viewBox="0 0 125 170">
<rect width="125" height="170" rx="28" fill="#0f0a1a"/>
<rect x="6" y="6" width="113" height="113" rx="20" fill="none" stroke="rgba(168,85,247,0.2)" stroke-width="1"/>
<line x1="62" y1="10" x2="62" y2="115" stroke="rgba(255,255,255,0.08)" stroke-width="0.7"/>
<line x1="10" y1="62" x2="115" y2="62" stroke="rgba(255,255,255,0.08)" stroke-width="0.7"/>
<ellipse cx="62" cy="62" rx="18" ry="18" stroke="rgba(255,255,255,0.07)" stroke-width="0.7" fill="none"/>
<rect x="10" y="43" width="20" height="38" fill="none" stroke="rgba(255,255,255,0.12)" stroke-width="0.7"/>
<rect x="95" y="43" width="20" height="38" fill="none" stroke="rgba(255,255,255,0.12)" stroke-width="0.7"/>
<path d="M30 50 A9 9 0 0 1 30 74" fill="none" stroke="rgba(255,255,255,0.12)" stroke-width="0.7"/>
<path d="M95 50 A-9 9 0 0 0 95 74" fill="none" stroke="rgba(255,255,255,0.12)" stroke-width="0.7"/>
<line x1="44" y1="26" x2="38" y2="46" stroke="rgba(168,85,247,0.55)" stroke-width="1" stroke-dasharray="3,2"/>
<line x1="80" y1="26" x2="86" y2="46" stroke="rgba(168,85,247,0.55)" stroke-width="1" stroke-dasharray="3,2"/>
<line x1="38" y1="46" x2="30" y2="66" stroke="rgba(168,85,247,0.45)" stroke-width="1" stroke-dasharray="3,2"/>
<line x1="62" y1="46" x2="62" y2="66" stroke="rgba(168,85,247,0.45)" stroke-width="1" stroke-dasharray="3,2"/>
<line x1="86" y1="46" x2="94" y2="66" stroke="rgba(168,85,247,0.45)" stroke-width="1" stroke-dasharray="3,2"/>
<line x1="30" y1="66" x2="12" y2="84" stroke="rgba(168,85,247,0.4)" stroke-width="1" stroke-dasharray="3,2"/>
<line x1="30" y1="66" x2="35" y2="84" stroke="rgba(168,85,247,0.4)" stroke-width="1" stroke-dasharray="3,2"/>
<line x1="62" y1="66" x2="62" y2="84" stroke="rgba(168,85,247,0.4)" stroke-width="1" stroke-dasharray="3,2"/>
<line x1="94" y1="66" x2="89" y2="84" stroke="rgba(168,85,247,0.4)" stroke-width="1" stroke-dasharray="3,2"/>
<line x1="94" y1="66" x2="112" y2="84" stroke="rgba(168,85,247,0.4)" stroke-width="1" stroke-dasharray="3,2"/>
<line x1="12" y1="84" x2="62" y2="100" stroke="rgba(168,85,247,0.3)" stroke-width="1" stroke-dasharray="3,2"/>
<line x1="112" y1="84" x2="62" y2="100" stroke="rgba(168,85,247,0.3)" stroke-width="1" stroke-dasharray="3,2"/>
<circle cx="44" cy="26" r="5" fill="#0f0a1a" stroke="#a855f7" stroke-width="1.5"/>
<circle cx="80" cy="26" r="5" fill="#0f0a1a" stroke="#a855f7" stroke-width="1.5"/>
<circle cx="30" cy="66" r="5" fill="#0f0a1a" stroke="#a855f7" stroke-width="1.5"/>
<circle cx="62" cy="66" r="5" fill="#0f0a1a" stroke="#a855f7" stroke-width="1.5"/>
<circle cx="94" cy="66" r="5" fill="#0f0a1a" stroke="#a855f7" stroke-width="1.5"/>
<circle cx="12" cy="84" r="5" fill="#0f0a1a" stroke="#a855f7" stroke-width="1.5"/>
<circle cx="35" cy="84" r="5" fill="#0f0a1a" stroke="#a855f7" stroke-width="1.5"/>
<circle cx="62" cy="84" r="5" fill="#0f0a1a" stroke="#a855f7" stroke-width="1.5"/>
<circle cx="89" cy="84" r="5" fill="#0f0a1a" stroke="#a855f7" stroke-width="1.5"/>
<circle cx="112" cy="84" r="5" fill="#0f0a1a" stroke="#a855f7" stroke-width="1.5"/>
<circle cx="62" cy="100" r="6.5" fill="#a855f7" stroke="#c084fc" stroke-width="1.5"/>
<text x="62" y="146" text-anchor="middle" font-family="system-ui,sans-serif" font-size="17" font-weight="800" fill="#fff">Tacti<tspan fill="#a855f7">Q</tspan></text>
<text x="62" y="159" text-anchor="middle" font-family="system-ui,sans-serif" font-size="8" fill="#c084fc" letter-spacing="3">5 - 3 - 2</text>
</svg>
